<svg xmlns="http://www.w3.org/2000/svg" xmlns:xlink="http://www.w3.org/1999/xlink" viewBox="0 0 465.81 464.2"><defs><style>.cls-1{fill:url(#linear-gradient);}</style><linearGradient id="linear-gradient" x1="491.93" y1="101.46" x2="50.53" y2="356.3" gradientUnits="userSpaceOnUse"><stop offset="0" stop-color="#b0ffcc"/><stop offset="0.03" stop-color="#b6fbcc"/><stop offset="0.24" stop-color="#dee1cc"/><stop offset="0.4" stop-color="#f6d2cc"/><stop offset="0.5" stop-color="#fcc"/><stop offset="0.58" stop-color="#ffd0c3"/><stop offset="0.72" stop-color="#ffddab"/><stop offset="0.89" stop-color="#fff083"/><stop offset="1" stop-color="#ff6"/></linearGradient></defs><title>Asset 2</title><g id="Layer_2" data-name="Layer 2"><g id="Layer_2-2" data-name="Layer 2"><path class="cls-1" d="M76.15,67.58C77.26,65.67,99.88,28.11,137.69,23c34.24-4.66,46.28,22,84.62,20,24.76-1.27,33.11-13.06,58.46-24.61C333.12-5.52,420-11.06,451.54,32.19c19.46,26.67,19.55,74.11-3.08,101.54-36.74,44.53-115.24,14.38-135.38,55.38-10.62,21.61,2.4,47.86,4.61,52.31,20,40.31,64,30.59,90.77,64.62,27.21,34.59,26.54,101.62-9.23,135.38-38.46,36.3-107.44,24.63-146.15-3.07-49.3-35.29-40.28-90-86.16-104.62-29.63-9.45-40.92,11-83.07,1.54C72.66,332.76,30.08,323.23,10,286c-24.08-44.61,2.64-94.89,4.62-98.46,14.74-26.76,28.61-23.07,43.07-52.31C72.87,104.57,61.21,93.2,76.15,67.58Z"/></g></g></svg>