<svg xmlns="http://www.w3.org/2000/svg" xmlns:xlink="http://www.w3.org/1999/xlink" viewBox="0 0 465.8 493.61"><defs><style>.cls-1{fill:url(#linear-gradient);}.cls-2{fill:url(#linear-gradient-2);}</style><linearGradient id="linear-gradient" x1="396.29" y1="-39.67" x2="146.18" y2="393.53" gradientTransform="matrix(1, 0, 0, -1, 0, 405.8)" gradientUnits="userSpaceOnUse"><stop offset="0.01" stop-color="#ff6"/><stop offset="0.5" stop-color="#ffcdff"/><stop offset="0.69" stop-color="#e4e8e4"/><stop offset="0.87" stop-color="#d2f9d2"/><stop offset="1" stop-color="#cfc"/></linearGradient><linearGradient id="linear-gradient-2" x1="39.15" y1="425.94" x2="176.74" y2="425.94" gradientTransform="matrix(1, 0, 0, 1, 0, 0)" xlink:href="#linear-gradient"/></defs><title>Asset 7</title><g id="Layer_2" data-name="Layer 2"><g id="Layer_2-2" data-name="Layer 2"><g id="Layer_2-3" data-name="Layer 2"><g id="Layer_2-2-2" data-name="Layer 2-2"><path class="cls-1" d="M76.15,67.57C77.26,65.66,99.88,28.1,137.69,23c34.24-4.66,46.28,22,84.62,20,24.76-1.27,33.11-13.06,58.46-24.61C333.12-5.53,420-11.07,451.54,32.18c19.46,26.67,19.55,74.11-3.08,101.54-36.74,44.53-115.24,14.38-135.38,55.38-10.62,21.61,2.4,47.86,4.61,52.31,20,40.31,64,30.59,90.77,64.62,27.21,34.59,26.54,101.62-9.23,135.38-38.46,36.3-107.44,24.63-146.15-3.07-49.3-35.29-40.28-90-86.16-104.62-29.63-9.45-40.92,11-83.07,1.54C72.66,332.75,30.08,323.22,10,286c-24.08-44.61,2.64-94.89,4.62-98.46,14.74-26.76,28.61-23.07,43.07-52.31C72.87,104.56,61.21,93.19,76.15,67.57Z"/></g></g><path class="cls-2" d="M42.15,452.76c-10.53,24.86,7.55,51.32,41.31,36.64,19.69-8.56,16.67-17.65,67-48.79,76.12-47.14-33.72-128.55-66.95-48.79C64.61,437,50.87,432.15,42.15,452.76Z"/></g></g></svg>